<svg width="80" height="80" viewBox="0 0 80 80" fill="none" xmlns="http://www.w3.org/2000/svg">
<rect width="80" height="80" rx="30" fill="#F5F5F5"/>
<path fill-rule="evenodd" clip-rule="evenodd" d="M32.1171 29.3333C28.5545 29.3333 25.6665 32.2213 25.6665 35.7839V40.857C25.6665 42.302 25.6665 43.4676 25.7436 44.4114C25.823 45.3832 25.9907 46.2368 26.3931 47.0265C27.0323 48.2809 28.0522 49.3008 29.3066 49.94C30.0963 50.3423 30.9499 50.5101 31.9217 50.5895C32.8655 50.6666 34.0311 50.6666 35.4761 50.6666H43.0472C44.2495 50.6666 45.2194 50.6666 46.0088 50.6127C46.8204 50.5574 47.5381 50.4406 48.2177 50.1591C49.8512 49.4825 51.1491 48.1847 51.8257 46.5511C52.1072 45.8715 52.224 45.1538 52.2793 44.3422C52.3332 43.5528 52.3332 42.583 52.3332 41.3806V41.2859C52.3332 40.0835 52.3332 39.1137 52.2793 38.3243C52.224 37.5127 52.1072 36.795 51.8257 36.1154C51.1491 34.4818 49.8512 33.184 48.2177 32.5074C47.5381 32.2259 46.8204 32.1091 46.0088 32.0538C45.2194 31.9999 44.2495 31.9999 43.0472 31.9999L40.0702 31.9999C39.2512 31.9999 38.9717 31.9968 38.7088 31.9587C38.3111 31.9012 37.9245 31.7841 37.5617 31.6114C37.3219 31.4972 37.0875 31.3448 36.4061 30.8905L35.6953 30.4166C34.6356 29.7102 33.3906 29.3333 32.1171 29.3333ZM38.9998 37.3333C39.7362 37.3333 40.3332 37.9302 40.3332 38.6666V39.9999H41.6665C42.4029 39.9999 42.9998 40.5969 42.9998 41.3333C42.9998 42.0696 42.4029 42.6666 41.6665 42.6666H40.3332V43.9999C40.3332 44.7363 39.7362 45.3333 38.9998 45.3333C38.2635 45.3333 37.6665 44.7363 37.6665 43.9999V42.6666H36.3332C35.5968 42.6666 34.9998 42.0696 34.9998 41.3333C34.9998 40.5969 35.5968 39.9999 36.3332 39.9999H37.6665V38.6666C37.6665 37.9302 38.2635 37.3333 38.9998 37.3333Z" fill="#849087"/>
</svg>
