<svg width="80" height="80" viewBox="0 0 80 80" fill="none" xmlns="http://www.w3.org/2000/svg">
<rect width="80" height="80" rx="30" fill="#ECFCCB"/>
<path d="M42.1111 29.4841C42.8054 29.2387 43.1693 28.477 42.9239 27.7827C42.6785 27.0884 41.9167 26.7245 41.2224 26.9699C39.1528 27.7014 37.6668 29.6751 37.6668 31.9994L37.6667 36.1828C37.6661 37.2433 37.6657 38.0309 37.8485 38.7131C38.3416 40.5536 39.7792 41.9912 41.6197 42.4843C42.0297 42.5942 42.4777 42.6379 43.0001 42.6551V45.3328C43.0001 46.6358 42.9936 47.0926 42.9232 47.4465C42.6076 49.0333 41.3672 50.2737 39.7804 50.5893C39.4265 50.6597 38.9697 50.6661 37.6668 50.6661C36.3638 50.6661 35.907 50.6597 35.5531 50.5893C33.9663 50.2737 32.7259 49.0333 32.4103 47.4465C32.3399 47.0926 32.3334 46.6358 32.3334 45.3328V39.9995C32.3334 39.9615 32.3318 39.924 32.3287 39.8869C33.6936 39.5357 34.7361 38.4037 34.9573 36.9898C35.0007 36.7126 35.0004 36.4069 35.0001 36.0786L35.0001 35.9995L35.0001 35.9204C35.0004 35.592 35.0007 35.2863 34.9573 35.0092C34.7181 33.4806 33.519 32.2814 31.9904 32.0423C31.7132 31.9989 31.4075 31.9991 31.0792 31.9994L31.0001 31.9995L30.921 31.9994C30.5926 31.9991 30.287 31.9989 30.0098 32.0423C28.4812 32.2814 27.282 33.4806 27.0429 35.0092C26.9995 35.2863 26.9998 35.592 27 35.9204L27.0001 35.9995L27 36.0786C26.9998 36.4069 26.9995 36.7126 27.0429 36.9898C27.2641 38.4037 28.3066 39.5357 29.6714 39.8869C29.6683 39.924 29.6668 39.9615 29.6668 39.9995L29.6667 45.4871C29.6665 46.5773 29.6663 47.3203 29.7949 47.9667C30.3209 50.6113 32.3882 52.6787 35.0328 53.2047C35.6792 53.3333 36.4223 53.3331 37.5124 53.3328H37.8211C38.9112 53.3331 39.6543 53.3333 40.3007 53.2047C42.9453 52.6787 45.0126 50.6113 45.5387 47.9667C45.6672 47.3203 45.6671 46.5773 45.6668 45.4871L45.6668 42.6551C46.1892 42.6379 46.6372 42.5942 47.0471 42.4843C48.8876 41.9912 50.3252 40.5536 50.8184 38.7131C51.0012 38.0309 51.0007 37.2434 51.0002 36.1828L51.0001 31.9994C51.0001 29.6751 49.5141 27.7014 47.4444 26.9699C46.7501 26.7245 45.9884 27.0884 45.743 27.7827C45.4976 28.477 45.8615 29.2387 46.5558 29.4841C47.5933 29.8508 48.3334 30.8404 48.3334 31.9994V35.9994C48.3334 37.3252 48.322 37.7265 48.2426 38.0229C47.996 38.9432 47.2772 39.662 46.3569 39.9085C46.0606 39.9879 45.6592 39.9994 44.3334 39.9994C43.0076 39.9994 42.6063 39.9879 42.3099 39.9085C41.3897 39.662 40.6709 38.9432 40.4243 38.0229C40.3449 37.7265 40.3334 37.3252 40.3334 35.9994V31.9994C40.3334 30.8404 41.0736 29.8508 42.1111 29.4841Z" fill="#84CC16"/>
</svg>
