<svg width="80" height="80" viewBox="0 0 80 80" fill="none" xmlns="http://www.w3.org/2000/svg">
<rect width="80" height="80" rx="30" fill="#FFE4E7"/>
<path d="M33.6665 28C34.4029 28 34.9998 28.597 34.9998 29.3333V30.6725C35.3468 30.6666 35.7442 30.6666 36.2166 30.6667H41.7831C42.2555 30.6666 42.6529 30.6666 42.9998 30.6725V29.3333C42.9998 28.597 43.5968 28 44.3332 28C45.0696 28 45.6665 28.597 45.6665 29.3333V31.0551C48.2202 31.8152 50.3092 33.6302 51.4335 36H26.5662C27.6905 33.6302 29.7795 31.8152 32.3332 31.0551V29.3333C32.3332 28.597 32.9301 28 33.6665 28Z" fill="#F43F5E"/>
<path fill-rule="evenodd" clip-rule="evenodd" d="M25.7622 38.6667H52.2375C52.243 38.705 52.2483 38.7433 52.2533 38.7818C52.3333 39.3894 52.3333 40.0895 52.3332 41.2167V41.45C52.3333 42.5772 52.3333 43.2773 52.2533 43.8849C51.702 48.0731 48.4063 51.3688 44.2181 51.9202C43.6104 52.0002 42.9103 52.0001 41.7831 52H36.2166C35.0894 52.0001 34.3893 52.0002 33.7816 51.9202C29.5934 51.3688 26.2977 48.0731 25.7464 43.8849C25.6664 43.2773 25.6664 42.5772 25.6665 41.4499V41.2168C25.6664 40.0895 25.6664 39.3894 25.7464 38.7818C25.7514 38.7433 25.7567 38.705 25.7622 38.6667ZM38.9998 42.6667C38.2635 42.6667 37.6665 43.2636 37.6665 44C37.6665 44.7364 38.2635 45.3333 38.9998 45.3333C39.7362 45.3333 40.3332 44.7364 40.3332 44C40.3332 43.2636 39.7362 42.6667 38.9998 42.6667ZM42.9998 44C42.9998 43.2636 43.5968 42.6667 44.3332 42.6667C45.0695 42.6667 45.6665 43.2636 45.6665 44C45.6665 44.7364 45.0695 45.3333 44.3332 45.3333C43.5968 45.3333 42.9998 44.7364 42.9998 44ZM33.6665 42.6667C32.9301 42.6667 32.3332 43.2636 32.3332 44C32.3332 44.7364 32.9301 45.3333 33.6665 45.3333C34.4029 45.3333 34.9998 44.7364 34.9998 44C34.9998 43.2636 34.4029 42.6667 33.6665 42.6667Z" fill="#F43F5E"/>
</svg>
